<?xml version="1.0" encoding="utf-8"?>
<!-- Generator: Adobe Illustrator 25.0.0, SVG Export Plug-In . SVG Version: 6.00 Build 0)  -->
<svg version="1.1" xmlns="http://www.w3.org/2000/svg" xmlns:xlink="http://www.w3.org/1999/xlink" x="0px" y="0px"
	 viewBox="0 0 3574.89 800" style="enable-background:new 0 0 3574.89 800;" xml:space="preserve">
<style type="text/css">
	.st0{fill:#212E7E;}
	.st1{fill:#445DB7;}
	.st2{fill:#8893D3;}
</style>
<g id="Logo">
	<g>
		<g>
			<g>
				<path class="st0" d="M400,400c110.46,0,200,89.55,200,200H400V400z"/>
				<path class="st1" d="M600,200c0,110.46-89.55,200-200,200l0-200L600,200z"/>
				<g>
					<path class="st2" d="M399.99,200H200v200C200,289.54,289.54,200,399.99,200z"/>
					<polygon class="st0" points="399.99,200 400,200 400,200 					"/>
					<polygon class="st0" points="400,400 400,400 200,400 					"/>
					<path class="st0" d="M200,400l200,0V200h-0.01C289.54,200,200,289.54,200,400z"/>
				</g>
				<polygon class="st1" points="200,400 400,600 200,600 				"/>
				<polygon class="st2" points="200,400 400,400 400,600 				"/>
			</g>
		</g>
		<g>
			<g>
				<g>
					<path class="st0" d="M2649.65,234.55c40.34,0,60.16,22.38,61.09,51.06h-33.58c-1.17-14.46-9.09-24.02-26.82-24.02
						c-18.65,0-29.85,8.86-29.85,34.98c0,26.35,10.73,34.97,29.38,34.97c18.42,0,26.58-10.72,27.98-24.72h33.58
						c-0.7,27.28-20.05,51.76-61.09,51.76c-45.47,0-64.58-29.38-64.58-62.02C2585.76,263.93,2604.41,234.55,2649.65,234.55z"/>
					<path class="st0" d="M2721.98,296.34c0-32.18,18.18-61.79,64.58-61.79c46.63,0,64.59,29.85,64.59,61.79
						c0,32.41-17.95,62.26-64.59,62.26C2740.16,358.59,2721.98,328.98,2721.98,296.34z M2786.56,331.54
						c21.22,0,30.08-9.09,30.08-34.97c0-25.88-8.86-34.98-30.08-34.98c-20.98,0-29.84,9.09-29.84,34.98
						C2756.72,322.45,2765.58,331.54,2786.56,331.54z"/>
					<path class="st0" d="M2867.62,199.81h34.51v155.05h-34.51V199.81z"/>
					<path class="st0" d="M2923.27,199.81h34.51v155.05h-34.51V199.81z"/>
					<path class="st0" d="M3063.9,319.65h33.11c-3.26,18.65-18.19,38.94-60.16,38.94c-45.47,0-62.72-29.38-62.72-62.26
						c0-33.81,19.58-61.79,62.72-61.79c44.07,0,60.39,28.68,60.39,61.56c0,3.5,0,6.76-0.47,9.33h-88.83
						c2.1,22.15,13.06,29.38,29.61,29.38C3052.7,334.81,3060.63,328.28,3063.9,319.65z M3008.17,284.44h56.19
						c-1.17-17.72-9.79-26.58-27.05-26.58C3020.76,257.86,3010.97,264.63,3008.17,284.44z"/>
					<path class="st0" d="M3237.82,238.28V350.2c0,35.67-17.95,53.86-65.29,53.86c-39.87,0-59.69-17.95-61.32-44.07h33.81
						c1.4,11.89,9.56,19.82,28.91,19.82c20.29,0,29.38-7.23,29.38-25.65v-21.22c-7.93,11.89-20.98,18.42-40.57,18.42
						c-38,0-54.33-26.11-54.33-58.06c0-32.64,16.32-58.52,54.33-58.52c19.59,0,32.64,7,40.57,18.89v-15.39H3237.82z M3203.31,293.77
						c0-22.15-8.16-32.18-29.61-32.18c-21.92,0-30.78,8.86-30.78,32.18c0,23.32,8.86,32.18,30.78,32.18
						C3195.15,325.95,3203.31,315.69,3203.31,293.77z"/>
					<path class="st0" d="M3343.96,319.65h33.11c-3.27,18.65-18.19,38.94-60.16,38.94c-45.47,0-62.72-29.38-62.72-62.26
						c0-33.81,19.58-61.79,62.72-61.79c44.07,0,60.39,28.68,60.39,61.56c0,3.5,0,6.76-0.47,9.33H3288
						c2.1,22.15,13.06,29.38,29.61,29.38C3332.77,334.81,3340.7,328.28,3343.96,319.65z M3288.23,284.44h56.19
						c-1.17-17.72-9.79-26.58-27.05-26.58C3300.83,257.86,3291.03,264.63,3288.23,284.44z"/>
				</g>
				<g>
					<path class="st0" d="M955.49,238.29v116.58h-34.51v-22.38c-7.23,15.62-20.29,26.11-41.27,26.11
						c-30.54,0-44.07-18.42-44.07-48.96v-71.35h34.51v66.22c0,18.42,8.16,25.88,22.85,25.88c17.25,0,27.98-12.82,27.98-39.17v-52.93
						H955.49z"/>
					<path class="st0" d="M1171.28,238.29l-30.78,116.58h-48.03l-23.55-80.67l-23.32,80.67h-48.27l-30.78-116.58h34.98l22.38,90.93
						l28.45-90.93h35.91l28.45,90.7l22.15-90.7H1171.28z"/>
					<path class="st0" d="M1175.81,323.86c0-18.65,8.16-30.78,38.24-35.91l27.51-4.66c10.72-1.87,14.45-4.9,14.45-11.66
						c0-8.16-4.66-13.52-20.28-13.52c-15.86,0-23.32,6.3-23.78,18.19h-33.81c0.93-24.95,21.45-41.97,56.89-41.97
						s52.7,15.16,52.7,39.87v50.36c0,10.96,0.7,20.28,1.86,30.31h-30.08c-1.16-7.69-1.87-15.39-1.87-24.95
						c-5.36,16.09-19.35,27.98-43.14,27.98C1190.97,357.9,1175.81,344.84,1175.81,323.86z M1256.02,299.38v-5.13
						c-6.06,4.2-11.89,5.83-19.12,7.46l-9.79,2.33c-12.36,3.03-17.25,7.46-17.25,16.32c0,9.33,7,13.99,16.32,13.99
						C1244.36,334.35,1256.02,321.06,1256.02,299.38z"/>
					<path class="st0" d="M1307.09,199.82h37.54v23.08h-37.54V199.82z M1308.72,238.29h34.51v116.58h-34.51V238.29z"/>
					<path class="st0" d="M826.17,327.39H810.3c-2.87,0-5.58-1.31-7.37-3.57l-28.26-35.72l50.02-48.63v-0.93h-41.18l-36.99,38.85
						c-3.96,4.42-8.14,9.77-12.1,15.36V200H700v154.87h34.43v-27.92l18.38-17.68l20.37,27.54c8.4,11.36,21.7,18.06,35.83,18.06
						l17.15,0V327.39z"/>
					<path class="st0" d="M1377.44,312.95v-48.44h-21.19v-16.53l49.35-47.97h6.31v38.43h33.54v26.08h-33.54v57.51
						c0,2.96,2.4,5.36,5.36,5.36h27.82v27.48h-24.8C1387.22,354.87,1377.44,340.66,1377.44,312.95z"/>
				</g>
				<g>
					<path class="st0" d="M1697.32,319.65h33.11c-3.27,18.65-18.19,38.94-60.16,38.94c-45.47,0-62.72-29.38-62.72-62.26
						c0-33.81,19.58-61.79,62.72-61.79c44.07,0,60.39,28.68,60.39,61.56c0,3.5,0,6.76-0.47,9.33h-88.83
						c2.1,22.15,13.06,29.38,29.61,29.38C1686.13,334.81,1694.06,328.28,1697.32,319.65z M1641.6,284.45h56.19
						c-1.17-17.72-9.79-26.58-27.05-26.58C1654.19,257.86,1644.39,264.63,1641.6,284.45z"/>
					<path class="st0" d="M1805.42,234.55c40.34,0,60.16,22.38,61.09,51.06h-33.58c-1.17-14.46-9.09-24.02-26.82-24.02
						c-18.65,0-29.84,8.86-29.84,34.97c0,26.35,10.73,34.98,29.38,34.98c18.42,0,26.58-10.73,27.98-24.71h33.58
						c-0.7,27.28-20.05,51.76-61.09,51.76c-45.47,0-64.58-29.38-64.58-62.02C1741.54,263.93,1760.19,234.55,1805.42,234.55z"/>
					<path class="st0" d="M2002.82,283.28v71.58h-34.51v-66.22c0-18.65-7.93-26.11-22.15-26.11c-18.42,0-28.68,11.66-28.68,39.4
						v52.93h-34.51V199.99h34.51v61.13c7.46-15.85,20.75-26.58,41.97-26.58C1990,234.55,2002.82,252.74,2002.82,283.28z"/>
					<path class="st0" d="M2143.4,283.28v71.58h-34.51v-66.22c0-18.65-7.93-26.11-22.15-26.11c-18.42,0-28.68,11.66-28.68,39.4
						v52.93h-34.51V238.28h34.51v22.85c7.46-15.85,20.75-26.58,41.97-26.58C2130.58,234.55,2143.4,252.74,2143.4,283.28z"/>
					<path class="st0" d="M2162.34,199.81h37.54v23.08h-37.54V199.81z M2163.97,238.28h34.51v116.58h-34.51V238.28z"/>
					<path class="st0" d="M2277.96,234.55c40.34,0,60.16,22.38,61.09,51.06h-33.58c-1.17-14.46-9.09-24.02-26.82-24.02
						c-18.65,0-29.84,8.86-29.84,34.97c0,26.35,10.73,34.98,29.38,34.98c18.42,0,26.58-10.73,27.98-24.71h33.58
						c-0.7,27.28-20.05,51.76-61.09,51.76c-45.47,0-64.58-29.38-64.58-62.02C2214.08,263.93,2232.73,234.55,2277.96,234.55z"/>
					<path class="st0" d="M2351.14,323.85c0-18.65,8.16-30.78,38.24-35.91l27.51-4.66c10.73-1.87,14.46-4.9,14.46-11.66
						c0-8.16-4.66-13.52-20.29-13.52c-15.86,0-23.32,6.3-23.78,18.19h-33.81c0.93-24.95,21.45-41.97,56.89-41.97
						s52.69,15.16,52.69,39.87v50.36c0,10.96,0.7,20.29,1.87,30.31h-30.08c-1.16-7.69-1.87-15.39-1.87-24.95
						c-5.36,16.09-19.35,27.98-43.14,27.98C2366.29,357.89,2351.14,344.83,2351.14,323.85z M2431.35,299.37v-5.13
						c-6.06,4.2-11.89,5.83-19.12,7.46l-9.79,2.33c-12.36,3.03-17.25,7.46-17.25,16.32c0,9.33,6.99,13.99,16.32,13.99
						C2419.69,334.34,2431.35,321.05,2431.35,299.37z"/>
					<path class="st0" d="M2484.16,199.99h34.51v154.87h-34.51V199.99z"/>
					<path class="st0" d="M1533.09,312.95v-48.44h-21.19v-16.53l49.35-47.97h6.31v38.43h33.54v26.08h-33.54v57.51
						c0,2.96,2.4,5.36,5.36,5.36h27.82v27.48h-24.8C1542.87,354.87,1533.09,340.66,1533.09,312.95z"/>
				</g>
			</g>
			<g>
				<path class="st1" d="M782.31,482.93c4.93,0,9.12-1.72,12.56-5.16c3.44-3.44,5.16-7.55,5.16-12.33c0-4.78-1.72-8.9-5.16-12.34
					c-3.44-3.44-7.63-5.16-12.56-5.16c-4.79,0-8.86,1.68-12.22,5.05c-3.37,3.37-5.05,7.51-5.05,12.45c0,4.78,1.68,8.9,5.05,12.33
					C773.44,481.21,777.52,482.93,782.31,482.93z"/>
				<path class="st1" d="M742.16,482.93c4.94,0,9.12-1.72,12.56-5.16c3.44-3.44,5.16-7.55,5.16-12.33c0-4.78-1.72-8.9-5.16-12.34
					c-3.44-3.44-7.62-5.16-12.56-5.16c-4.78,0-8.9,1.68-12.33,5.05c-3.44,3.37-5.16,7.51-5.16,12.45c0,4.78,1.72,8.9,5.16,12.33
					C733.26,481.21,737.38,482.93,742.16,482.93z"/>
				<path class="st1" d="M872.15,610.76c-4.79,0-8.9,1.72-12.34,5.16c-3.44,3.44-5.16,7.63-5.16,12.56c0,4.78,1.71,8.9,5.16,12.34
					c3.44,3.44,7.55,5.16,12.34,5.16c4.93,0,9.12-1.72,12.56-5.16c3.44-3.44,5.16-7.55,5.16-12.34c0-4.93-1.72-9.12-5.16-12.56
					C881.27,612.48,877.08,610.76,872.15,610.76z"/>
				<path class="st1" d="M912.29,610.76c-4.78,0-8.86,1.72-12.22,5.16c-3.36,3.44-5.05,7.63-5.05,12.56c0,4.78,1.68,8.9,5.05,12.34
					c3.36,3.44,7.44,5.16,12.22,5.16c4.94,0,9.12-1.72,12.56-5.16c3.44-3.44,5.16-7.55,5.16-12.34c0-4.93-1.72-9.12-5.16-12.56
					C921.41,612.48,917.23,610.76,912.29,610.76z"/>
				<path class="st1" d="M1054.84,482.93c4.94,0,9.08-1.72,12.45-5.16c3.36-3.44,5.05-7.55,5.05-12.33c0-4.94-1.68-9.08-5.05-12.45
					c-3.36-3.36-7.51-5.05-12.45-5.05c-4.78,0-8.9,1.72-12.33,5.16c-3.44,3.44-5.16,7.55-5.16,12.34c0,4.78,1.72,8.9,5.16,12.33
					C1045.94,481.21,1050.05,482.93,1054.84,482.93z"/>
				<path class="st1" d="M1177.08,482.93c4.78,0,8.9-1.72,12.34-5.16c3.44-3.44,5.16-7.55,5.16-12.33c0-4.94-1.68-9.08-5.05-12.45
					c-3.37-3.36-7.51-5.05-12.45-5.05c-4.94,0-9.08,1.72-12.45,5.16c-3.37,3.44-5.05,7.55-5.05,12.34c0,4.78,1.71,8.9,5.16,12.33
					C1168.19,481.21,1172.3,482.93,1177.08,482.93z"/>
				<path class="st1" d="M1217.23,482.93c4.78,0,8.9-1.72,12.34-5.16c3.44-3.44,5.16-7.55,5.16-12.33c0-4.94-1.68-9.08-5.05-12.45
					c-3.37-3.36-7.51-5.05-12.45-5.05c-4.93,0-9.08,1.72-12.45,5.16c-3.37,3.44-5.05,7.55-5.05,12.34c0,4.78,1.72,8.9,5.16,12.33
					C1208.33,481.21,1212.44,482.93,1217.23,482.93z"/>
				<path class="st1" d="M1302.92,482.93c4.78,0,8.89-1.72,12.33-5.16c3.44-3.44,5.16-7.55,5.16-12.33c0-4.78-1.72-8.9-5.16-12.34
					c-3.44-3.44-7.55-5.16-12.33-5.16c-4.94,0-9.08,1.68-12.45,5.05c-3.37,3.37-5.05,7.51-5.05,12.45c0,4.78,1.68,8.9,5.05,12.33
					C1293.84,481.21,1297.99,482.93,1302.92,482.93z"/>
				<path class="st1" d="M1343.07,482.93c4.78,0,8.9-1.72,12.34-5.16c3.44-3.44,5.16-7.55,5.16-12.33c0-4.78-1.72-8.9-5.16-12.34
					c-3.44-3.44-7.55-5.16-12.34-5.16c-4.93,0-9.08,1.68-12.45,5.05c-3.37,3.37-5.05,7.51-5.05,12.45c0,4.78,1.68,8.9,5.05,12.33
					C1333.98,481.21,1338.13,482.93,1343.07,482.93z"/>
				<path class="st1" d="M1470.7,568.38c0,1.04-0.37,1.87-1.12,2.46c-0.6,0.45-1.34,0.67-2.24,0.67h-32.25h-4.75h-72.91
					c-0.15-0.75-0.22-1.42-0.22-2.02v-72.21h-34.54v69.75c0,1.35-0.45,2.39-1.35,3.14c-0.75,0.9-1.79,1.34-3.14,1.34h-27.04h-8.84
					h-40.39c4.33-8.52,6.5-17.72,6.5-27.58c0-13.91-4.86-25.57-14.58-34.99c-9.87-9.57-21.98-14.35-36.33-14.35
					c-9.57,0-18.31,2.21-26.24,6.62s-14.13,10.43-18.61,18.05c-4.04,7.48-6.06,15.7-6.06,24.67c0,9.72,2.16,18.92,6.5,27.58h-19.98
					v-0.45l-60.55,0.45c-0.15-0.75-0.22-1.42-0.22-2.02v-72.21h-34.54v69.75c0,1.35-0.45,2.39-1.35,3.14
					c-0.75,0.9-1.79,1.34-3.14,1.34h-26.55h-9.34h-67.19c-0.15-0.75-0.22-1.42-0.22-2.02v-72.21h-34.54v69.75
					c0,1.35-0.37,2.39-1.12,3.14c-0.75,0.9-1.87,1.34-3.36,1.34H860.7h-5.38h-51.72c-1.2,0-2.09-0.3-2.69-0.9
					c-0.6-0.59-0.9-1.34-0.9-2.24v-77.15h-17.27l-9.19,7.18c-7.48-3.14-15.03-4.71-22.65-4.71c-14.05,0-25.79,4.86-35.21,14.58
					c-10.47,10.77-15.7,24.37-15.7,40.82c0,13.46,3.44,25.05,10.31,34.76c8.52,12.41,20.26,18.61,35.21,18.61h0.45h0.23
					c10.31,0,19.13-3.66,26.46-10.99c6.28,5.98,13.23,8.97,20.86,8.97h61.81h5.38h41.5c8.97,0,16.22-3.44,21.75-10.31h0.67
					l9.87,10.31h62.93h9.34h37.54c8.97,0,16.3-3.44,21.98-10.31h0.45l9.87,10.31l35.45-0.28v0.28h63.47
					c9.42,0,16.45-1.34,21.08-4.03h1.34c4.63,2.69,11.59,4.03,20.86,4.03h63.49h8.84h38.03c8.97,0,16.29-3.44,21.98-10.31h0.45
					l9.87,10.31h68.87h4.75h42.12c8.82,0,16.07-3.37,21.75-10.09c4.18-5.23,6.28-11.14,6.28-17.72V439.87h-34.54V568.38z
					 M765.26,573.53c-3.44,0.75-6.43,1.12-8.97,1.12c-6.58,0-11.92-2.39-16.03-7.17c-4.11-4.78-6.17-10.91-6.17-18.39
					c0-7.92,1.87-14.13,5.61-18.61c3.73-4.49,8.89-6.73,15.47-6.73c3.14,0,6.5,0.45,10.09,1.35V573.53z M1197.27,571.07
					c-11.06-2.39-16.59-10.39-16.59-24c0-6.73,1.57-12.34,4.71-16.82c3.14-4.49,7.1-6.73,11.89-6.73c4.94,0,8.93,2.21,12,6.62
					c3.06,4.41,4.67,10.06,4.82,16.93C1214.09,560.83,1208.48,568.82,1197.27,571.07z"/>
				<polygon class="st1" points="1536.18,606.05 1553.22,606.05 1570.71,591.93 1570.71,439.87 1536.18,439.87 				"/>
				<path class="st1" d="M1746.61,526.21c4.94,0,9.08-1.68,12.45-5.05c3.37-3.37,5.05-7.51,5.05-12.45c0-4.78-1.68-8.9-5.05-12.34
					c-3.36-3.44-7.51-5.16-12.45-5.16c-4.78,0-8.9,1.72-12.33,5.16c-3.44,3.44-5.16,7.55-5.16,12.34c0,4.93,1.72,9.08,5.16,12.45
					C1737.72,524.53,1741.83,526.21,1746.61,526.21z"/>
				<path class="st1" d="M1786.76,526.21c4.93,0,9.08-1.68,12.45-5.05c3.37-3.37,5.05-7.51,5.05-12.45c0-4.78-1.68-8.9-5.05-12.34
					c-3.37-3.44-7.51-5.16-12.45-5.16c-4.79,0-8.9,1.72-12.34,5.16c-3.44,3.44-5.16,7.55-5.16,12.34c0,4.93,1.72,9.08,5.16,12.45
					C1777.86,524.53,1781.97,526.21,1786.76,526.21z"/>
				<path class="st1" d="M2025.84,610.76c-4.93,0-9.08,1.72-12.45,5.16c-3.37,3.44-5.05,7.63-5.05,12.56c0,4.78,1.68,8.9,5.05,12.34
					c3.37,3.44,7.51,5.16,12.45,5.16c4.78,0,8.9-1.72,12.34-5.16c3.44-3.44,5.15-7.55,5.15-12.34c0-4.93-1.72-9.12-5.15-12.56
					C2034.74,612.48,2030.63,610.76,2025.84,610.76z"/>
				<path class="st1" d="M2054.55,600.45c8.67,0,15.84-3.37,21.53-10.09c4.33-5.23,6.5-11.14,6.5-17.72v-75.35h-34.54v71.09
					c0,1.04-0.38,1.87-1.13,2.46c-0.6,0.45-1.34,0.67-2.24,0.67h-25.81h-11.19h-143.77c-0.15-0.75-0.22-1.42-0.22-2.02v-72.21
					h-34.54v69.75c0,1.05-0.3,2.02-0.9,2.91c-0.9,1.05-2.09,1.57-3.59,1.57h-106.75c-3.29,0-6.2-1.12-8.74-3.37
					c-3.29-2.84-4.94-6.57-4.94-11.21v-43.51h-17.04l-17.49,14.13v29.38c0,13.76,5.23,24.97,15.7,33.64
					c7.77,6.58,16.82,9.87,27.14,9.87h123.35c8.82,0,16.07-3.44,21.75-10.31h0.67l9.42,10.31h139.96h11.19H2054.55z"/>
				<path class="st1" d="M2065.98,610.76c-4.93,0-9.08,1.72-12.45,5.16c-3.36,3.44-5.05,7.63-5.05,12.56c0,4.78,1.68,8.9,5.05,12.34
					c3.37,3.44,7.51,5.16,12.45,5.16c4.78,0,8.9-1.72,12.34-5.16c3.44-3.44,5.16-7.55,5.16-12.34c0-4.93-1.72-9.12-5.16-12.56
					C2074.88,612.48,2070.77,610.76,2065.98,610.76z"/>
				<path class="st1" d="M2562.97,568.38c0,1.04-0.37,1.87-1.12,2.46c-0.6,0.45-1.34,0.67-2.24,0.67h-22.92h-14.08h-100.36
					l-0.23-4.26c-1.5-16.59-7.1-31.54-16.82-44.85c-8.82-12.26-20.49-21.9-34.99-28.93l38.35-24.45v-32.3l-84.33,48.89v28.03
					c0,1.2,0.67,1.87,2.02,2.02c18.69,1.35,34.46,9.05,47.32,23.1c9.12,10.31,13.68,20.11,13.68,29.38c0,2.24-1.05,3.37-3.14,3.37
					h-71.6h-15.64h-84.33v-34.99c0-14.8-5.98-26.16-17.94-34.09c-7.93-5.24-17.64-7.85-29.15-7.85c-16,0-29.15,5.24-39.47,15.7
					c-8.82,9.12-13.23,22.13-13.23,39.02c0,13.31,4.18,24.75,12.56,34.31c9.72,11.22,22.5,16.82,38.35,16.82h13.23
					c-3.89,16.59-16.3,24.9-37.23,24.9c-6.28,0-12.86-0.75-19.73-2.24v12.11l15.02,18.39c3.59,0.45,7.03,0.67,10.32,0.67
					c7.62,0,14.87-0.9,21.75-2.69c10.16-2.54,18.69-6.73,25.57-12.56c11.36-9.27,17.94-22.13,19.74-38.58h84.55h15.64h81.69
					c8.82,0,16.07-3.44,21.75-10.31h0.67l8.3,10.31h97.67h14.08h32.79c8.82,0,16.07-3.37,21.75-10.09
					c4.18-5.23,6.28-11.14,6.28-17.72V439.87h-34.54V568.38z M2178,571.52h-6.73c-16.29,0-24.44-8.22-24.44-24.67
					c0-7.03,1.68-12.67,5.05-16.93c3.36-4.26,7.81-6.39,13.35-6.39c2.84,0,5.38,0.82,7.62,2.47c3.44,2.54,5.16,6.13,5.16,10.77
					V571.52z"/>
				<polygon class="st1" points="2628.45,606.05 2645.5,606.05 2662.99,591.93 2662.99,439.87 2628.45,439.87 				"/>
				<path class="st1" d="M2841.93,482.93c4.93,0,9.12-1.72,12.56-5.16c3.44-3.44,5.16-7.55,5.16-12.33c0-4.78-1.72-8.9-5.16-12.34
					c-3.44-3.44-7.63-5.16-12.56-5.16c-4.79,0-8.86,1.68-12.22,5.05c-3.36,3.37-5.05,7.51-5.05,12.45c0,4.78,1.68,8.9,5.05,12.33
					C2833.07,481.21,2837.14,482.93,2841.93,482.93z"/>
				<path class="st1" d="M2801.79,482.93c4.94,0,9.12-1.72,12.56-5.16c3.44-3.44,5.16-7.55,5.16-12.33c0-4.78-1.72-8.9-5.16-12.34
					c-3.44-3.44-7.62-5.16-12.56-5.16c-4.78,0-8.9,1.68-12.33,5.05c-3.44,3.37-5.16,7.51-5.16,12.45c0,4.78,1.72,8.9,5.16,12.33
					C2792.89,481.21,2797,482.93,2801.79,482.93z"/>
				<path class="st1" d="M2955.93,610.76c-4.79,0-8.9,1.72-12.34,5.16c-3.44,3.44-5.15,7.63-5.15,12.56c0,4.78,1.71,8.9,5.15,12.34
					c3.44,3.44,7.55,5.16,12.34,5.16c4.93,0,9.12-1.72,12.56-5.16c3.44-3.44,5.16-7.55,5.16-12.34c0-4.93-1.72-9.12-5.16-12.56
					C2965.04,612.48,2960.86,610.76,2955.93,610.76z"/>
				<path class="st1" d="M2996.07,610.76c-4.78,0-8.86,1.72-12.22,5.16c-3.36,3.44-5.05,7.63-5.05,12.56c0,4.78,1.68,8.9,5.05,12.34
					c3.37,3.44,7.44,5.16,12.22,5.16c4.94,0,9.12-1.72,12.56-5.16c3.44-3.44,5.16-7.55,5.16-12.34c0-4.93-1.72-9.12-5.16-12.56
					C3005.19,612.48,3001,610.76,2996.07,610.76z"/>
				<path class="st1" d="M3364,527.33c-9.87-14.95-22.73-26.31-38.58-34.09l38.58-24.22v-32.52l-84.33,48.89v28.03
					c0,1.34,0.67,2.09,2.02,2.24c16.3,1.35,31.02,7.85,44.18,19.51c11.22,10.31,16.82,21.3,16.82,32.97c0,2.24-1.05,3.37-3.14,3.37
					h-78.08h-9.16h-71.83c-0.15-0.75-0.22-1.42-0.22-2.02V439.87h-34.54v128.51c0,1.04-0.45,1.87-1.35,2.46
					c-0.45,0.45-1.12,0.67-2.02,0.67h-11.24h-25.77h-91.34c-0.15-0.75-0.22-1.42-0.22-2.02v-72.21h-34.54v69.75
					c0,1.35-0.38,2.39-1.12,3.14c-0.75,0.9-1.87,1.34-3.36,1.34h-26.99h-8.67h-75.87c-1.2,0-2.09-0.3-2.69-0.9
					c-0.6-0.59-0.9-1.34-0.9-2.24v-77.15h-17.27l-9.19,7.18c-7.48-3.14-15.03-4.71-22.65-4.71c-14.05,0-25.79,4.86-35.21,14.58
					c-10.47,10.77-15.7,24.37-15.7,40.82c0,13.46,3.44,25.05,10.31,34.76c8.52,12.41,20.26,18.61,35.21,18.61h0.45h0.23
					c10.31,0,19.13-3.66,26.46-10.99c6.28,5.98,13.23,8.97,20.86,8.97h85.96h8.67h38.2c8.97,0,16.22-3.44,21.75-10.31h0.67
					l9.87,10.31h87.08h25.77h21.11c8.97,0,16.3-3.44,21.98-10.31h0.45l9.64,10.31h68.02h9.16h88.18c8.22,0,14.95-2.88,20.18-8.63
					c5.23-5.75,7.85-13.04,7.85-21.87C3377.68,555.3,3373.11,541.09,3364,527.33z M2824.89,573.53c-3.44,0.75-6.43,1.12-8.97,1.12
					c-6.58,0-11.92-2.39-16.03-7.17c-4.11-4.78-6.17-10.91-6.17-18.39c0-7.92,1.87-14.13,5.61-18.61c3.73-4.49,8.89-6.73,15.47-6.73
					c3.14,0,6.5,0.45,10.09,1.35V573.53z"/>
			</g>
		</g>
	</g>
</g>
<g id="Guides">
</g>
</svg>
